<mxfile host="65bd71144e">
    <diagram id="kgpKYQtTHZ0yAKxKKP6v" name="Page-1">
        <mxGraphModel dx="593" dy="478" grid="1" gridSize="10" guides="1" tooltips="1" connect="1" arrows="1" fold="1" page="1" pageScale="1" pageWidth="3300" pageHeight="4681" math="0" shadow="0">
            <root>
                <mxCell id="0"/>
                <mxCell id="1" parent="0"/>
                <mxCell id="3nuBFxr9cyL0pnOWT2aG-1" value=":Object&#10;Player" style="shape=umlLifeline;perimeter=lifelinePerimeter;container=0;collapsible=0;recursiveResize=0;rounded=0;shadow=0;strokeWidth=1;" parent="1" vertex="1">
                    <mxGeometry x="80" y="60" width="100" height="360" as="geometry"/>
                </mxCell>
                <mxCell id="3nuBFxr9cyL0pnOWT2aG-5" value=":Object&#10;Startscreen" style="shape=umlLifeline;perimeter=lifelinePerimeter;container=1;collapsible=0;recursiveResize=0;rounded=0;shadow=0;strokeWidth=1;" parent="1" vertex="1">
                    <mxGeometry x="80" y="780" width="100" height="280" as="geometry"/>
                </mxCell>
                <mxCell id="3nuBFxr9cyL0pnOWT2aG-6" value="" style="points=[];perimeter=orthogonalPerimeter;rounded=0;shadow=0;strokeWidth=1;" parent="3nuBFxr9cyL0pnOWT2aG-5" vertex="1">
                    <mxGeometry x="45" y="70" width="10" height="180" as="geometry"/>
                </mxCell>
                <mxCell id="EycxZSTwfMmpZiWEvpWu-1" value=":Object&#10;GameLoop" style="shape=umlLifeline;perimeter=lifelinePerimeter;container=1;collapsible=0;recursiveResize=0;rounded=0;shadow=0;strokeWidth=1;" parent="1" vertex="1">
                    <mxGeometry x="80" y="1100" width="100" height="280" as="geometry"/>
                </mxCell>
                <mxCell id="EycxZSTwfMmpZiWEvpWu-2" value="" style="points=[];perimeter=orthogonalPerimeter;rounded=0;shadow=0;strokeWidth=1;" parent="EycxZSTwfMmpZiWEvpWu-1" vertex="1">
                    <mxGeometry x="45" y="80" width="10" height="160" as="geometry"/>
                </mxCell>
                <mxCell id="EycxZSTwfMmpZiWEvpWu-3" value=":Object&#10;Multiplikation" style="shape=umlLifeline;perimeter=lifelinePerimeter;container=1;collapsible=0;recursiveResize=0;rounded=0;shadow=0;strokeWidth=1;" parent="1" vertex="1">
                    <mxGeometry x="370" y="540" width="100" height="480" as="geometry"/>
                </mxCell>
                <mxCell id="EycxZSTwfMmpZiWEvpWu-4" value="" style="points=[];perimeter=orthogonalPerimeter;rounded=0;shadow=0;strokeWidth=1;" parent="EycxZSTwfMmpZiWEvpWu-3" vertex="1">
                    <mxGeometry x="45" y="80" width="10" height="160" as="geometry"/>
                </mxCell>
                <mxCell id="EycxZSTwfMmpZiWEvpWu-9" value=":Class&lt;br style=&quot;padding: 0px ; margin: 0px&quot;&gt;Problemz&lt;br style=&quot;padding: 0px ; margin: 0px&quot;&gt;Factories" style="rounded=0;whiteSpace=wrap;html=1;" parent="1" vertex="1">
                    <mxGeometry x="370" y="480" width="120" height="60" as="geometry"/>
                </mxCell>
                <mxCell id="EycxZSTwfMmpZiWEvpWu-10" value=":Object&#10;Division" style="shape=umlLifeline;perimeter=lifelinePerimeter;container=1;collapsible=0;recursiveResize=0;rounded=0;shadow=0;strokeWidth=1;" parent="1" vertex="1">
                    <mxGeometry x="470" y="540" width="100" height="480" as="geometry"/>
                </mxCell>
                <mxCell id="EycxZSTwfMmpZiWEvpWu-11" value="" style="points=[];perimeter=orthogonalPerimeter;rounded=0;shadow=0;strokeWidth=1;" parent="EycxZSTwfMmpZiWEvpWu-10" vertex="1">
                    <mxGeometry x="45" y="80" width="10" height="160" as="geometry"/>
                </mxCell>
                <mxCell id="EycxZSTwfMmpZiWEvpWu-12" value=":Object&#10;SubAdd" style="shape=umlLifeline;perimeter=lifelinePerimeter;container=1;collapsible=0;recursiveResize=0;rounded=0;shadow=0;strokeWidth=1;" parent="1" vertex="1">
                    <mxGeometry x="570" y="540" width="100" height="480" as="geometry"/>
                </mxCell>
                <mxCell id="EycxZSTwfMmpZiWEvpWu-13" value="" style="points=[];perimeter=orthogonalPerimeter;rounded=0;shadow=0;strokeWidth=1;" parent="EycxZSTwfMmpZiWEvpWu-12" vertex="1">
                    <mxGeometry x="45" y="80" width="10" height="160" as="geometry"/>
                </mxCell>
                <mxCell id="EycxZSTwfMmpZiWEvpWu-14" value=":Object&#10;Ekvation" style="shape=umlLifeline;perimeter=lifelinePerimeter;container=1;collapsible=0;recursiveResize=0;rounded=0;shadow=0;strokeWidth=1;" parent="1" vertex="1">
                    <mxGeometry x="670" y="540" width="100" height="480" as="geometry"/>
                </mxCell>
                <mxCell id="EycxZSTwfMmpZiWEvpWu-15" value="" style="points=[];perimeter=orthogonalPerimeter;rounded=0;shadow=0;strokeWidth=1;" parent="EycxZSTwfMmpZiWEvpWu-14" vertex="1">
                    <mxGeometry x="45" y="80" width="10" height="160" as="geometry"/>
                </mxCell>
                <mxCell id="fRN0QFOcR2f6WoaFnRx7-1" value=":Main&#10;Loop" style="shape=umlLifeline;perimeter=lifelinePerimeter;container=0;collapsible=0;recursiveResize=0;rounded=0;shadow=0;strokeWidth=1;fillColor=#008a00;fontColor=#ffffff;strokeColor=#005700;" parent="1" vertex="1">
                    <mxGeometry x="240" y="60" width="100" height="960" as="geometry"/>
                </mxCell>
                <mxCell id="fRN0QFOcR2f6WoaFnRx7-17" value="Return Intro" style="endArrow=classic;html=1;rounded=0;exitX=0;exitY=0.313;exitDx=0;exitDy=0;exitPerimeter=0;" parent="1" edge="1">
                    <mxGeometry x="-0.0072" relative="1" as="geometry">
                        <mxPoint x="470" y="300.0799999999999" as="sourcePoint"/>
                        <mxPoint x="331" y="300" as="targetPoint"/>
                        <Array as="points">
                            <mxPoint x="365" y="300"/>
                        </Array>
                        <mxPoint as="offset"/>
                    </mxGeometry>
                </mxCell>
                <mxCell id="fRN0QFOcR2f6WoaFnRx7-18" value="Source" style="edgeLabel;resizable=0;html=1;align=left;verticalAlign=bottom;" parent="fRN0QFOcR2f6WoaFnRx7-17" connectable="0" vertex="1">
                    <mxGeometry x="-1" relative="1" as="geometry">
                        <mxPoint x="-40" as="offset"/>
                    </mxGeometry>
                </mxCell>
                <mxCell id="fRN0QFOcR2f6WoaFnRx7-21" value="Set" style="endArrow=classic;html=1;rounded=0;entryX=0.1;entryY=0.253;entryDx=0;entryDy=0;entryPerimeter=0;" parent="1" edge="1">
                    <mxGeometry relative="1" as="geometry">
                        <mxPoint x="330" y="260" as="sourcePoint"/>
                        <mxPoint x="470" y="260.48" as="targetPoint"/>
                        <mxPoint as="offset"/>
                    </mxGeometry>
                </mxCell>
                <mxCell id="3nuBFxr9cyL0pnOWT2aG-2" value="" style="points=[];perimeter=orthogonalPerimeter;rounded=0;shadow=0;strokeWidth=1;" parent="1" vertex="1">
                    <mxGeometry x="125" y="130" width="10" height="250" as="geometry"/>
                </mxCell>
                <mxCell id="71bdDlgEzA0VGXFDS2K_-2" value="Actor" style="shape=umlActor;verticalLabelPosition=bottom;verticalAlign=top;html=1;outlineConnect=0;" parent="1" vertex="1">
                    <mxGeometry x="40" y="40" width="30" height="60" as="geometry"/>
                </mxCell>
                <mxCell id="71bdDlgEzA0VGXFDS2K_-3" value=":Object&#10;Levels" style="shape=umlLifeline;perimeter=lifelinePerimeter;container=0;collapsible=0;recursiveResize=0;rounded=0;shadow=0;strokeWidth=1;" parent="1" vertex="1">
                    <mxGeometry x="80" y="460" width="100" height="280" as="geometry"/>
                </mxCell>
                <mxCell id="71bdDlgEzA0VGXFDS2K_-4" value="" style="points=[];perimeter=orthogonalPerimeter;rounded=0;shadow=0;strokeWidth=1;" parent="1" vertex="1">
                    <mxGeometry x="125" y="530" width="10" height="180" as="geometry"/>
                </mxCell>
                <mxCell id="4" value="AddSub" style="rounded=0;whiteSpace=wrap;html=1;" parent="1" vertex="1">
                    <mxGeometry x="490" y="510" width="70" height="30" as="geometry"/>
                </mxCell>
                <mxCell id="8" value="Multi" style="rounded=0;whiteSpace=wrap;html=1;" parent="1" vertex="1">
                    <mxGeometry x="560" y="510" width="70" height="30" as="geometry"/>
                </mxCell>
                <mxCell id="9" value="Divi" style="rounded=0;whiteSpace=wrap;html=1;" parent="1" vertex="1">
                    <mxGeometry x="630" y="510" width="70" height="30" as="geometry"/>
                </mxCell>
                <mxCell id="10" value="Ekvi" style="rounded=0;whiteSpace=wrap;html=1;" parent="1" vertex="1">
                    <mxGeometry x="700" y="510" width="70" height="30" as="geometry"/>
                </mxCell>
                <mxCell id="fRN0QFOcR2f6WoaFnRx7-29" value="List" style="swimlane;fontStyle=0;childLayout=stackLayout;horizontal=1;startSize=50;horizontalStack=0;resizeParent=1;resizeParentMax=0;resizeLast=0;collapsible=1;marginBottom=0;" parent="1" vertex="1">
                    <mxGeometry x="190" y="210" width="80" height="140" as="geometry"/>
                </mxCell>
                <mxCell id="fRN0QFOcR2f6WoaFnRx7-30" value="Name" style="text;strokeColor=none;fillColor=none;align=left;verticalAlign=middle;spacingLeft=4;spacingRight=4;overflow=hidden;points=[[0,0.5],[1,0.5]];portConstraint=eastwest;rotatable=0;" parent="fRN0QFOcR2f6WoaFnRx7-29" vertex="1">
                    <mxGeometry y="50" width="80" height="30" as="geometry"/>
                </mxCell>
                <mxCell id="fRN0QFOcR2f6WoaFnRx7-31" value="Lvls" style="text;strokeColor=none;fillColor=none;align=left;verticalAlign=middle;spacingLeft=4;spacingRight=4;overflow=hidden;points=[[0,0.5],[1,0.5]];portConstraint=eastwest;rotatable=0;" parent="fRN0QFOcR2f6WoaFnRx7-29" vertex="1">
                    <mxGeometry y="80" width="80" height="30" as="geometry"/>
                </mxCell>
                <mxCell id="fRN0QFOcR2f6WoaFnRx7-32" value="Etc" style="text;strokeColor=none;fillColor=none;align=left;verticalAlign=middle;spacingLeft=4;spacingRight=4;overflow=hidden;points=[[0,0.5],[1,0.5]];portConstraint=eastwest;rotatable=0;" parent="fRN0QFOcR2f6WoaFnRx7-29" vertex="1">
                    <mxGeometry y="110" width="80" height="30" as="geometry"/>
                </mxCell>
                <mxCell id="fRN0QFOcR2f6WoaFnRx7-24" value="Return" style="endArrow=classic;html=1;rounded=0;" parent="1" edge="1">
                    <mxGeometry relative="1" as="geometry">
                        <mxPoint x="140" y="220" as="sourcePoint"/>
                        <mxPoint x="280" y="220" as="targetPoint"/>
                        <mxPoint as="offset"/>
                    </mxGeometry>
                </mxCell>
                <mxCell id="fRN0QFOcR2f6WoaFnRx7-2" value="" style="points=[];perimeter=orthogonalPerimeter;rounded=0;shadow=0;strokeWidth=1;" parent="1" vertex="1">
                    <mxGeometry x="285" y="850" width="10" height="160" as="geometry"/>
                </mxCell>
                <mxCell id="fRN0QFOcR2f6WoaFnRx7-16" value="" style="points=[];perimeter=orthogonalPerimeter;rounded=0;shadow=0;strokeWidth=1;" parent="1" vertex="1">
                    <mxGeometry x="285" y="130" width="10" height="250" as="geometry"/>
                </mxCell>
                <mxCell id="fRN0QFOcR2f6WoaFnRx7-22" value="Request Info" style="endArrow=classic;html=1;rounded=0;" parent="1" edge="1">
                    <mxGeometry x="-0.0072" relative="1" as="geometry">
                        <mxPoint x="280" y="170" as="sourcePoint"/>
                        <mxPoint x="140" y="170" as="targetPoint"/>
                        <Array as="points">
                            <mxPoint x="206" y="170"/>
                            <mxPoint x="180" y="170"/>
                        </Array>
                        <mxPoint as="offset"/>
                    </mxGeometry>
                </mxCell>
                <mxCell id="fRN0QFOcR2f6WoaFnRx7-19" value="Get" style="endArrow=classic;html=1;rounded=0;" parent="1" edge="1">
                    <mxGeometry x="-0.0072" relative="1" as="geometry">
                        <mxPoint x="470" y="220" as="sourcePoint"/>
                        <mxPoint x="330" y="220" as="targetPoint"/>
                        <Array as="points">
                            <mxPoint x="396" y="220"/>
                            <mxPoint x="370" y="220"/>
                        </Array>
                        <mxPoint as="offset"/>
                    </mxGeometry>
                </mxCell>
                <mxCell id="fRN0QFOcR2f6WoaFnRx7-10" value="Return Intro" style="endArrow=classic;html=1;rounded=0;exitX=0;exitY=0.313;exitDx=0;exitDy=0;exitPerimeter=0;" parent="1" edge="1">
                    <mxGeometry relative="1" as="geometry">
                        <mxPoint x="279" y="900.0799999999999" as="sourcePoint"/>
                        <mxPoint x="140" y="900" as="targetPoint"/>
                        <Array as="points">
                            <mxPoint x="174" y="900"/>
                        </Array>
                    </mxGeometry>
                </mxCell>
                <mxCell id="fRN0QFOcR2f6WoaFnRx7-11" value="Source" style="edgeLabel;resizable=0;html=1;align=left;verticalAlign=bottom;" parent="fRN0QFOcR2f6WoaFnRx7-10" connectable="0" vertex="1">
                    <mxGeometry x="-1" relative="1" as="geometry"/>
                </mxCell>
                <mxCell id="fRN0QFOcR2f6WoaFnRx7-6" value="Return Intro" style="endArrow=classic;html=1;rounded=0;entryX=0.1;entryY=0.253;entryDx=0;entryDy=0;entryPerimeter=0;" parent="1" edge="1">
                    <mxGeometry relative="1" as="geometry">
                        <mxPoint x="140" y="940" as="sourcePoint"/>
                        <mxPoint x="280" y="940.48" as="targetPoint"/>
                    </mxGeometry>
                </mxCell>
            </root>
        </mxGraphModel>
    </diagram>
</mxfile>